Coordinates
version=1
nRows=18
nColumns=22
inDegrees=yes

Units are S.I. units (second, meters, Newtons, ...)
If the header above contains a line with 'inDegrees', this indicates whether rotational values are in degrees (yes) or radians (no).

endheader
time	pelvis_tilt	pelvis_list	pelvis_rotation	pelvis_tx	pelvis_ty	pelvis_tz	hip_flexion_r	hip_adduction_r	hip_rotation_r	knee_angle_r	ankle_angle_r	subtalar_angle_r	hip_flexion_l	hip_adduction_l	hip_rotation_l	knee_angle_l	ankle_angle_l	subtalar_angle_l	lumbar_extension	lumbar_bending	lumbar_rotation
      2.80000000	     -2.22516211	     -1.91645801	      3.15690145	     -0.70214984	      0.97843210	     -0.04209998	     29.07452689	      0.52037298	    -11.83664311	    -19.03098513	     -1.59183488	      5.44169621	    -13.22045185	     -0.96074802	     -2.16794899	    -20.39342413	     10.52467624	      5.61632723	     -4.80074841	      1.09560394	     -6.94419137
      2.81000000	     -2.30935173	     -2.35617756	      3.09159744	     -0.68978479	      0.98021758	     -0.04060632	     28.81897057	      1.05821388	    -11.70629122	    -19.68543401	     -1.75246430	      5.36141406	    -12.88731801	     -1.56735379	     -2.49980801	    -21.82497898	      8.78251831	      6.21451638	     -4.50045464	      1.66677152	     -6.87877344
      2.82000000	     -2.37551819	     -2.76986417	      2.98553354	     -0.67743197	      0.98215176	     -0.03898348	     28.47159995	      1.61292504	    -11.51933927	    -20.22497318	     -1.72107581	      5.31085542	    -12.46479274	     -2.16359976	     -2.99717104	    -23.39885912	      6.88296198	      6.84613284	     -4.21595450	      2.19550421	     -6.78551208
      2.83000000	     -2.43461973	     -3.15067601	      2.84852869	     -0.66514264	      0.98419051	     -0.03723421	     28.03579001	      2.18135124	    -11.24313356	    -20.62478175	     -1.57317510	      5.27086524	    -11.93759446	     -2.75078477	     -3.63693546	    -25.11653686	      4.81737828	      7.29194760	     -3.94057938	      2.67128124	     -6.67598600
      2.84000000	     -2.47554317	     -3.50611969	      2.69984803	     -0.65294091	      0.98627357	     -0.03537437	     27.53355093	      2.75114480	    -10.95466422	    -20.95169205	     -1.25863216	      5.17690873	    -11.31296490	     -3.36004228	     -4.42697463	    -26.98870724	      2.70258591	      7.76734117	     -3.68998067	      3.10277610	     -6.57576569
      2.85000000	     -2.50162082	     -3.82155541	      2.55191343	     -0.64087273	      0.98839477	     -0.03343368	     26.95205947	      3.30539107	    -10.63341483	    -21.16290762	     -0.86382067	      5.05134742	    -10.59239658	     -3.97450289	     -5.28281049	    -29.00402296	      0.52906533	      8.08811083	     -3.46990066	      3.47268288	     -6.47199715
      2.86000000	     -2.51380806	     -4.11925682	      2.41920005	     -0.62897333	      0.99048686	     -0.03141397	     26.31528806	      3.85089630	    -10.33924186	    -21.29562321	     -0.38602536	      4.87332321	     -9.76646409	     -4.63276416	     -6.19272040	    -31.18025119	     -1.56591592	      8.31743753	     -3.28261695	      3.80283663	     -6.37224751
      2.87000000	     -2.51664596	     -4.40209621	      2.31537751	     -0.61726245	      0.99252620	     -0.02934738	     25.62090580	      4.38181125	    -10.08714374	    -21.32761060	      0.12497091	      4.65019413	     -8.83174307	     -5.34238592	     -7.12028120	    -33.51175300	     -3.51400549	      8.40670614	     -3.12582480	      4.09615471	     -6.28657901
      2.88000000	     -2.50463600	     -4.68144693	      2.24380241	     -0.60578017	      0.99449165	     -0.02724956	     24.88222353	      4.90429099	     -9.88189030	    -21.28720647	      0.64140185	      4.40157253	     -7.79955844	     -6.10362495	     -7.99250013	    -35.97996658	     -5.25307560	      8.33671102	     -3.01446825	      4.36916844	     -6.21722603
      2.89000000	     -2.47875182	     -4.95848337	      2.20683721	     -0.59452951	      0.99636564	     -0.02514866	     24.10349658	      5.41541304	     -9.73345742	    -21.17637919	      1.15515227	      4.13721941	     -6.67737495	     -6.90535977	     -8.77066800	    -38.55300197	     -6.72330671	      8.09673810	     -2.94686260	      4.62313822	     -6.16206617
      2.90000000	     -2.44139107	     -5.22990857	      2.20580586	     -0.58352905	      0.99812474	     -0.02306978	     23.30053646	      5.91053995	     -9.62767732	    -21.01607569	      1.65923825	      3.84465196	     -5.47045539	     -7.72488111	     -9.41163416	    -41.19212689	     -7.87422697	      7.62497467	     -2.92277214	      4.85604859	     -6.12295100
      2.91000000	     -2.38762906	     -5.49388466	      2.22556370	     -0.57277797	      0.99978454	     -0.02106296	     22.47605192	      6.38678205	     -9.55651221	    -20.81800103	      2.13340430	      3.58713298	     -4.20083748	     -8.52836987	     -9.88347946	    -43.83906102	     -8.67870333	      7.06064286	     -2.94984872	      5.07534958	     -6.05867298
      2.92000000	     -2.32433369	     -5.74629548	      2.26370619	     -0.56225552	      1.00133233	     -0.01912269	     21.64153248	      6.84092630	     -9.51358689	    -20.59163276	      2.57660277	      3.35743229	     -2.87406331	     -9.30603163	    -10.21331562	    -46.44414266	     -9.09191214	      6.41001430	     -3.01287812	      5.27519896	     -6.00137143
      2.93000000	     -2.24842938	     -5.98924453	      2.31750611	     -0.55196307	      1.00278789	     -0.01727305	     20.79271496	      7.27914983	     -9.46430130	    -20.33196014	      2.97643038	      3.17531990	     -1.50738455	    -10.02902523	    -10.36284269	    -48.95437724	     -9.06727516	      5.77186474	     -3.11482720	      5.46231609	     -5.94094508
      2.94000000	     -2.16598575	     -6.19808194	      2.37300874	     -0.54187803	      1.00414877	     -0.01552743	     19.95173636	      7.67310493	     -9.42464657	    -20.07909502	      3.37272048	      2.98839521	     -0.11441192	    -10.66037075	    -10.37645235	    -51.31767105	     -8.68345719	      5.00092487	     -3.24286182	      5.60852970	     -5.84922261
      2.95000000	     -2.07527203	     -6.34486272	      2.41518642	     -0.53197555	      1.00544200	     -0.01386259	     19.11462457	      8.00037149	     -9.36306126	    -19.83982033	      3.79836024	      2.78205738	      1.27860072	    -11.16445674	    -10.29490859	    -53.48660764	     -8.00445699	      4.05730217	     -3.39635531	      5.68095454	     -5.71267139
      2.96000000	     -1.96737548	     -6.48785580	      2.45672321	     -0.52222812	      1.00671360	     -0.01225887	     18.24590760	      8.32569533	     -9.26826603	    -19.55071892	      4.13879034	      2.64979140	      2.66167353	    -11.61286540	    -10.12684636	    -55.45288365	     -7.03696054	      3.29594794	     -3.57357631	      5.74683309	     -5.56867041
      2.97000000	     -1.85505629	     -6.55537327	      2.46703775	     -0.51263167	      1.00794252	     -0.01067925	     17.38526842	      8.57418482	     -9.14337532	    -19.28511572	      4.51694385	      2.49649262	      4.01872706	    -11.92876979	     -9.94026446	    -57.17745915	     -5.93707147	      2.36523679	     -3.76415650	      5.71801678	     -5.37208618
